<svg aria-hidden="true" style="position: absolute; width: 0; height: 0; overflow: hidden;" version="1.1" xmlns="http://www.w3.org/2000/svg" xmlns:xlink="http://www.w3.org/1999/xlink">
<defs>
<symbol id="icon-company-brand" viewBox="0 0 64 32">
<path fill="#afb1b8" d="M1.024 8.256c0.043 0.064 0.064 0.149 0.064 0.213l-0.021 0.149-0.085 0.107c-0.107 0.085-0.235 0.107-0.363 0.107h-0.619v-1.323h0.597c0.128 0 0.256 0.021 0.341 0.085l0.085 0.107 0.043 0.149c0 0.064-0.021 0.149-0.085 0.213l-0.171 0.085c0.085 0 0.149 0.064 0.213 0.107zM0.299 8.064h0.256c0.043 0 0.107 0 0.149-0.043l0.043-0.064 0.021-0.064v-0.064l-0.064-0.064c-0.043-0.043-0.107-0.043-0.171-0.043h-0.235v0.341zM0.725 8.576l0.064-0.064v-0.149l-0.043-0.064c-0.064-0.043-0.128-0.043-0.192-0.043h-0.256v0.363h0.256c0.064 0 0.128 0 0.192-0.043zM2.261 8.832l-0.341-0.512h-0.128v0.512h-0.299v-1.323h0.555c0.149 0 0.277 0.043 0.384 0.107 0.085 0.085 0.128 0.171 0.128 0.277s-0.021 0.213-0.085 0.277c-0.064 0.064-0.171 0.107-0.256 0.128l0.363 0.533h-0.32zM1.792 8.128h0.235c0.171 0 0.256-0.064 0.256-0.192l-0.021-0.085c-0.011-0.025-0.025-0.046-0.043-0.064l0 0-0.192-0.064h-0.235v0.427zM3.84 8.576h-0.576l-0.107 0.256h-0.299l0.533-1.301h0.32l0.533 1.301h-0.299l-0.107-0.256zM3.755 8.363l-0.213-0.555-0.213 0.555h0.427zM5.824 8.832h-0.277l-0.64-0.896v0.896h-0.299v-1.323h0.277l0.64 0.896v-0.896h0.299v1.323zM7.467 8.533c-0.043 0.085-0.149 0.171-0.256 0.213-0.128 0.064-0.256 0.085-0.405 0.085h-0.512v-1.323h0.533c0.149 0 0.277 0.021 0.427 0.085 0.085 0.043 0.192 0.128 0.235 0.213 0.057 0.101 0.091 0.223 0.091 0.352s-0.034 0.251-0.093 0.356l0.002-0.004zM7.147 8.491c0.078-0.084 0.126-0.196 0.126-0.32s-0.048-0.236-0.126-0.32l0 0c-0.107-0.085-0.213-0.128-0.363-0.107h-0.213v0.853h0.213c0.128 0 0.256-0.043 0.363-0.107zM4.032 0.171s3.712 1.28 3.627 3.136v3.157s-3.712-1.28-3.627-3.157v-3.136zM10.987 5.717c0.704-0.427 1.493-0.704 2.347-0.789v-0.981c-0.97 0.343-1.772 0.959-2.337 1.756l-0.010 0.015z"></path>
<path fill="#afb1b8" d="M10.56 6.016c0.576-1.067 1.579-1.877 2.773-2.283v-2.837s-5.291 1.835-5.184 4.48v4.48l0.619-0.235v-0.427c0.128-1.237 0.768-2.368 1.792-3.179z"></path>
<path fill="#afb1b8" d="M10.048 7.68c0.043-0.299 0.085-0.619 0.192-0.917-0.671 0.708-1.095 1.656-1.13 2.702l-0 0.007 1.024-0.491c-0.085-0.427-0.128-0.853-0.085-1.28zM10.261 7.68c-0.012 0.115-0.018 0.248-0.018 0.383 0 0.287 0.030 0.568 0.087 0.838l-0.005-0.026c1.451-0.789 3.072-2.027 3.008-3.499v-0.128c-1.024 0.107-2.005 0.512-2.752 1.173-0.171 0.427-0.277 0.853-0.32 1.28z"></path>
</symbol>
<symbol id="icon-company-company" viewBox="0 0 64 32">
<path fill="#afb1b8" d="M1.579 8.768l0.011 0.002 0.009 0.004 0.047 0.045c-0.036 0.036-0.081 0.064-0.13 0.085-0.060 0.021-0.124 0.032-0.186 0.030-0.060 0-0.119-0.009-0.175-0.028-0.098-0.034-0.176-0.107-0.215-0.2l-0.001-0.002c-0.020-0.047-0.032-0.102-0.032-0.159s0.012-0.112 0.033-0.162l-0.001 0.003c0.021-0.045 0.051-0.087 0.092-0.124 0.038-0.034 0.085-0.062 0.139-0.079 0.054-0.019 0.116-0.031 0.18-0.031 0.060 0 0.117 0.010 0.171 0.027l-0.004-0.001c0.045 0.017 0.087 0.043 0.124 0.073l-0.038 0.047c-0.003 0.003-0.006 0.006-0.010 0.008l-0 0c-0.004 0.003-0.009 0.004-0.015 0.004-0 0-0 0-0 0v0c-0.006-0.001-0.012-0.003-0.017-0.006l0 0-0.021-0.013-0.028-0.015c-0.043-0.022-0.093-0.034-0.147-0.034-0.005 0-0.011 0-0.016 0l0.001-0c-0.043 0-0.087 0.006-0.128 0.021-0.076 0.026-0.136 0.082-0.166 0.154l-0.001 0.002c-0.016 0.036-0.025 0.079-0.026 0.124v0c0 0.043 0.009 0.087 0.023 0.128 0.029 0.073 0.088 0.128 0.16 0.153l0.002 0.001c0.038 0.013 0.079 0.021 0.119 0.021l0.070-0.004c0.059-0.006 0.112-0.030 0.154-0.066l-0 0c0.006-0.005 0.013-0.008 0.021-0.009h0zM2.923 8.544c0 0.055-0.009 0.107-0.030 0.158-0.021 0.045-0.049 0.085-0.087 0.122-0.041 0.036-0.085 0.064-0.139 0.081-0.113 0.038-0.239 0.038-0.354 0-0.053-0.019-0.098-0.047-0.137-0.081l0 0c-0.037-0.034-0.066-0.075-0.087-0.121l-0.001-0.002c-0.043-0.1-0.043-0.213 0-0.314 0.021-0.047 0.049-0.087 0.087-0.124 0.041-0.034 0.085-0.060 0.137-0.079 0.053-0.018 0.114-0.029 0.177-0.029s0.124 0.011 0.181 0.030l-0.004-0.001c0.051 0.019 0.098 0.047 0.139 0.081 0.072 0.067 0.118 0.162 0.118 0.267 0 0.004-0 0.009-0 0.013l0-0.001zM2.801 8.544c0-0.043-0.006-0.085-0.021-0.126-0.028-0.072-0.086-0.128-0.158-0.153l-0.002-0.001c-0.038-0.013-0.082-0.021-0.128-0.021s-0.090 0.008-0.131 0.021l0.003-0.001c-0.039 0.013-0.072 0.034-0.1 0.060l0-0c-0.027 0.026-0.049 0.057-0.063 0.092l-0.001 0.002c-0.028 0.083-0.028 0.171 0 0.254 0.028 0.073 0.087 0.129 0.16 0.153l0.002 0.001c0.083 0.026 0.175 0.026 0.256 0 0.038-0.015 0.073-0.034 0.1-0.060 0.028-0.028 0.049-0.060 0.062-0.094 0.015-0.043 0.021-0.085 0.021-0.128zM3.84 8.676l0.013 0.030 0.013-0.030 0.015-0.028 0.299-0.469c0.004-0.006 0.011-0.013 0.015-0.013 0.008-0.003 0.016-0.004 0.026-0.004v0h0.087v0.764h-0.105v-0.61l-0.299 0.476c-0.004 0.007-0.010 0.013-0.017 0.017l-0 0c-0.007 0.004-0.016 0.006-0.025 0.006-0 0-0 0-0 0v0h-0.017c-0 0-0.001 0-0.001 0-0.009 0-0.018-0.002-0.025-0.007l0 0c-0.007-0.004-0.013-0.010-0.017-0.017l-0-0-0.307-0.48v0.614h-0.102v-0.764h0.090c0.009 0 0.015 0 0.023 0.004 0.006 0.002 0.013 0.006 0.017 0.013l0.303 0.469 0.015 0.028zM4.958 8.64v0.286h-0.115v-0.764h0.258c0.049 0 0.098 0.006 0.145 0.017 0.038 0.009 0.073 0.026 0.102 0.047 0.026 0.021 0.047 0.047 0.060 0.075 0.013 0.032 0.021 0.064 0.019 0.098 0 0.001 0 0.001 0 0.002 0 0.070-0.033 0.131-0.085 0.17l-0.001 0c-0.030 0.023-0.064 0.043-0.102 0.051-0.041 0.012-0.088 0.019-0.136 0.019-0.002 0-0.003 0-0.005-0h0l-0.141-0.002zM4.958 8.557h0.141c0.032 0 0.062-0.002 0.092-0.011 0.025-0.008 0.046-0.019 0.064-0.034l-0 0c0.033-0.027 0.053-0.068 0.053-0.113 0-0.001 0-0.001 0-0.002v0c0-0.002 0-0.005 0-0.008 0-0.019-0.004-0.037-0.011-0.053l0 0.001c-0.010-0.021-0.025-0.039-0.042-0.053l-0-0c-0.043-0.030-0.098-0.043-0.156-0.041h-0.141v0.314zM6.522 8.926h-0.092c-0.001 0-0.002 0-0.003 0-0.008 0-0.016-0.002-0.023-0.007l0 0c-0.006-0.004-0.011-0.010-0.015-0.017l-0-0-0.079-0.186h-0.397l-0.083 0.186c-0.007 0.015-0.022 0.026-0.039 0.026-0.001 0-0.002-0-0.004-0h-0.089l0.35-0.766h0.122l0.352 0.764zM5.946 8.642h0.329l-0.139-0.309c-0.009-0.020-0.018-0.044-0.025-0.069l-0.001-0.004-0.013 0.041-0.013 0.032-0.139 0.309zM7.025 8.166l0.017 0.013 0.51 0.576v-0.593h0.102v0.764h-0.058c-0.009 0-0.017 0-0.023-0.004-0.008-0.004-0.014-0.009-0.019-0.015l-0-0-0.508-0.576v0.595h-0.105v-0.764h0.064c0.004 0 0.013 0 0.019 0.004zM8.512 8.623v0.303h-0.115v-0.303l-0.322-0.461h0.105c0.001-0 0.002-0 0.003-0 0.008 0 0.016 0.002 0.023 0.007l-0-0 0.015 0.017 0.201 0.299c0.013 0.019 0.025 0.041 0.035 0.063l0.001 0.003 0.015-0.032 0.021-0.034 0.196-0.299c0.004-0.007 0.009-0.012 0.015-0.017l0-0c0.007-0.005 0.015-0.009 0.024-0.009 0.001 0 0.001 0 0.002 0h0.107l-0.324 0.463zM3.782 6.882l0.154 0.013c0.779-0.299 1.426-0.793 1.901-1.425l0.008-0.011c0.424-0.565 0.679-1.278 0.679-2.051 0-0.022-0-0.043-0.001-0.064l0 0.003-0.866-0.751c0.177 0.796 0.094 1.617-0.237 2.374-0.363 0.793-0.924 1.442-1.622 1.901l-0.017 0.010z"></path>
<path fill="#afb1b8" d="M3.473 6.848l0.023 0.002c0.789-0.491 1.393-1.175 1.728-1.969 0.191-0.432 0.302-0.935 0.302-1.464 0-0.359-0.051-0.706-0.147-1.034l0.006 0.026-1.233-1.069c0.384 0.657 0.611 1.446 0.611 2.289 0 0.193-0.012 0.384-0.035 0.571l0.002-0.022c-0.14 1.041-0.594 1.958-1.261 2.672l0.003-0.003zM7.652 4.23c-0.24 0.871-0.753 1.598-1.44 2.102l-0.011 0.008c-0.213 0.162-0.444 0.305-0.687 0.429 0.595-0.151 1.143-0.42 1.6-0.785 0.441-0.35 0.793-0.793 1.028-1.301l0.009-0.022-0.499-0.431z"></path>
<path fill="#afb1b8" d="M7.456 4.109l-0.713-0.619c-0.019 0.751-0.266 1.44-0.675 2.005l0.007-0.010c-0.445 0.613-1.032 1.098-1.714 1.412l-0.027 0.011h0.004c0.16 0 0.32-0.009 0.478-0.023 0.677-0.239 1.253-0.615 1.72-1.097l0.001-0.001c0.437-0.452 0.758-1.019 0.912-1.652l0.005-0.025zM3.578 0.887l-0.849-0.738c-0.758 0.249-1.394 0.695-1.87 1.277l-0.006 0.007c-0.435 0.537-0.701 1.227-0.708 1.978v0.002c0.011 0.833 0.336 1.588 0.862 2.155l-0.002-0.002c0.571 0.615 1.324 1.055 2.172 1.235l0.027 0.005c0.736-0.759 1.217-1.769 1.3-2.89l0.001-0.015c0.005-0.077 0.007-0.166 0.007-0.257 0-1.042-0.352-2.001-0.943-2.766l0.008 0.010zM9.417 3.996c-0.002-0.928-0.427-1.813-1.182-2.47-0.754-0.638-1.737-1.026-2.811-1.026-0.011 0-0.022 0-0.032 0h0.002c-0.493 0-0.981 0.079-1.442 0.235l5.197 4.512c0.169-0.367 0.268-0.797 0.269-1.25v-0z"></path>
</symbol>
<symbol id="icon-company-foster" viewBox="0 0 64 32">
<path fill="#afb1b8" d="M2.805 2.795c-0.512 0-0.928 0.369-0.928 0.823 0 0.457 0.416 0.823 0.926 0.823 0.512 0 0.928-0.367 0.928-0.823 0-0.454-0.416-0.823-0.926-0.823zM9.643 2.532c-0.002-0.631-0.286-1.237-0.789-1.685-0.499-0.433-1.156-0.698-1.874-0.698-0.006 0-0.012 0-0.017 0h0.001c-0.71 0-1.393 0.252-1.894 0.7-0.476 0.41-0.779 1.010-0.789 1.681l-0 0.002v3.482s5.363-0.531 5.363-3.482zM0 7.157c0 0.439 0.198 0.86 0.548 1.171 0.348 0.302 0.805 0.486 1.305 0.486 0.004 0 0.008 0 0.012-0h-0.001c0.495 0 0.969-0.175 1.318-0.486 0.331-0.286 0.541-0.703 0.548-1.17v-2.423s-3.731 0.369-3.731 2.421zM1.865 7.59c-0.096 0-0.192-0.023-0.271-0.073-0.078-0.046-0.139-0.112-0.178-0.191l-0.001-0.003c-0.023-0.049-0.037-0.106-0.037-0.166 0-0.030 0.003-0.060 0.010-0.088l-0 0.003c0.019-0.085 0.064-0.16 0.134-0.222 0.068-0.060 0.153-0.102 0.246-0.119l0.003-0c0.094-0.015 0.192-0.006 0.282 0.026s0.166 0.087 0.22 0.16c0.051 0.067 0.082 0.151 0.082 0.243 0 0.122-0.055 0.232-0.141 0.305l-0.001 0c-0.047 0.043-0.1 0.073-0.16 0.096-0.060 0.021-0.122 0.032-0.188 0.032zM5.636 7.351h-0.361v0.373h-0.188v-0.911h0.593v0.151h-0.405v0.235h0.361v0.151zM6.537 7.29c0 0.090-0.015 0.169-0.047 0.235-0.056 0.127-0.181 0.214-0.326 0.214-0.005 0-0.009-0-0.013-0l0.001 0c-0.004 0-0.008 0-0.013 0-0.145 0-0.269-0.085-0.328-0.207l-0.001-0.002c-0.030-0.065-0.047-0.14-0.047-0.22 0-0.005 0-0.011 0-0.016l-0 0.001v-0.041c0-0.092 0.015-0.171 0.047-0.237 0.058-0.127 0.184-0.213 0.331-0.213 0.004 0 0.008 0 0.011 0h-0.001c0.075 0 0.143 0.019 0.201 0.055 0.060 0.036 0.107 0.090 0.137 0.158 0.034 0.066 0.049 0.145 0.049 0.235v0.043zM6.347 7.247c0-0.094-0.017-0.166-0.051-0.215-0.030-0.045-0.081-0.075-0.139-0.075-0.002 0-0.004 0-0.006 0h0c-0.064 0-0.113 0.023-0.147 0.073s-0.051 0.122-0.051 0.215v0.045c0 0.094 0.017 0.164 0.051 0.215s0.085 0.077 0.149 0.077c0.062 0 0.109-0.023 0.143-0.073s0.051-0.122 0.051-0.215v-0.045zM7.145 7.486c0-0.036-0.013-0.064-0.036-0.081-0.039-0.025-0.085-0.046-0.133-0.059l-0.003-0.001c-0.064-0.021-0.115-0.043-0.154-0.064-0.102-0.055-0.156-0.13-0.156-0.224 0-0.051 0.015-0.094 0.043-0.132s0.066-0.068 0.119-0.092c0.051-0.021 0.109-0.032 0.175-0.032 0.064 0 0.122 0.013 0.173 0.036 0.051 0.021 0.090 0.055 0.119 0.1 0.028 0.043 0.043 0.092 0.043 0.145h-0.188c0-0.043-0.015-0.075-0.041-0.096-0.027-0.023-0.063-0.037-0.102-0.037-0.003 0-0.006 0-0.010 0l0-0c-0.003-0-0.006-0-0.010-0-0.036 0-0.070 0.011-0.097 0.031l0.001-0c-0.023 0.017-0.038 0.044-0.038 0.075 0 0.001 0 0.002 0 0.002v-0c0 0.030 0.015 0.053 0.045 0.075 0.030 0.019 0.075 0.038 0.132 0.055 0.107 0.032 0.183 0.073 0.235 0.119 0.047 0.047 0.070 0.107 0.070 0.177 0 0.079-0.028 0.141-0.087 0.186s-0.141 0.068-0.241 0.068c-0.002 0-0.004 0-0.006 0-0.067 0-0.131-0.014-0.189-0.040l0.003 0.001c-0.104-0.039-0.177-0.138-0.177-0.254 0-0.002 0-0.004 0-0.006v0h0.188c0 0.1 0.062 0.149 0.181 0.149 0.043 0 0.079-0.009 0.105-0.026 0.023-0.021 0.036-0.045 0.036-0.077zM8.147 6.965h-0.279v0.759h-0.188v-0.759h-0.277v-0.149h0.742v0.149zM8.8 7.328h-0.358v0.245h0.422v0.149h-0.61v-0.909h0.608v0.151h-0.42v0.218h0.358v0.147zM9.312 7.392h-0.149v0.333h-0.19v-0.911h0.339c0.107 0 0.19 0.023 0.247 0.073 0.060 0.047 0.087 0.115 0.087 0.203 0 0.064-0.013 0.113-0.041 0.156-0.026 0.043-0.066 0.075-0.122 0.098l0.196 0.373v0.009h-0.201l-0.171-0.333zM9.163 7.238h0.149c0.047 0 0.085-0.011 0.109-0.034s0.039-0.056 0.039-0.092c0-0.003-0-0.006-0-0.009l0 0c0-0.043-0.011-0.077-0.036-0.1-0.023-0.026-0.062-0.038-0.111-0.038h-0.149v0.273zM10.298 7.403v0.32h-0.188v-0.909h0.354c0.068 0 0.128 0.013 0.181 0.038 0.051 0.023 0.092 0.060 0.119 0.107 0.028 0.045 0.043 0.098 0.043 0.156 0 0.090-0.032 0.16-0.094 0.213-0.060 0.049-0.145 0.075-0.252 0.075h-0.164zM10.298 7.253h0.166c0.049 0 0.087-0.013 0.113-0.036 0.028-0.023 0.041-0.058 0.041-0.1 0-0.001 0-0.003 0-0.004 0-0.040-0.015-0.076-0.041-0.102l0 0c-0.027-0.026-0.063-0.043-0.104-0.043-0.001 0-0.002 0-0.003 0h-0.173v0.284zM11.484 7.33h-0.361v0.243h0.422v0.149h-0.61v-0.909h0.608v0.151h-0.42v0.218h0.361v0.147zM12.354 6.967h-0.279v0.757h-0.188v-0.759h-0.275v-0.149h0.742v0.149zM13.009 7.33h-0.363v0.243h0.425v0.149h-0.612v-0.909h0.608v0.151h-0.416v0.218h0.361v0.147zM13.517 7.392h-0.149v0.333h-0.188v-0.911h0.339c0.107 0 0.192 0.023 0.25 0.073 0.058 0.047 0.085 0.115 0.085 0.203 0 0.064-0.013 0.113-0.038 0.156-0.028 0.043-0.068 0.075-0.124 0.098l0.198 0.373v0.009h-0.203l-0.171-0.333zM13.367 7.238h0.151c0.047 0 0.085-0.011 0.111-0.034 0.024-0.023 0.039-0.056 0.039-0.092 0-0.003-0-0.006-0-0.009l0 0c0-0.043-0.013-0.077-0.038-0.1-0.021-0.026-0.060-0.038-0.111-0.038h-0.149v0.273zM14.47 7.486c0-0.036-0.013-0.064-0.038-0.081-0.039-0.025-0.083-0.046-0.131-0.059l-0.003-0.001c-0.064-0.021-0.117-0.043-0.154-0.064-0.105-0.055-0.156-0.13-0.156-0.224 0-0.051 0.013-0.094 0.043-0.132 0.026-0.038 0.066-0.068 0.117-0.092 0.053-0.021 0.111-0.032 0.175-0.032s0.124 0.013 0.175 0.036c0.051 0.021 0.090 0.055 0.117 0.1 0.028 0.043 0.043 0.092 0.043 0.145h-0.188c0-0.043-0.013-0.075-0.038-0.096-0.027-0.023-0.063-0.037-0.102-0.037-0.003 0-0.006 0-0.010 0l0-0c-0.003-0-0.006-0-0.010-0-0.036 0-0.070 0.011-0.097 0.031l0.001-0c-0.023 0.017-0.038 0.044-0.038 0.075 0 0.001 0 0.002 0 0.002v-0c0 0.030 0.015 0.053 0.043 0.075 0.032 0.019 0.075 0.038 0.134 0.055 0.107 0.032 0.183 0.073 0.233 0.119s0.073 0.107 0.073 0.177c0 0.079-0.030 0.141-0.090 0.186s-0.139 0.068-0.241 0.068c-0.002 0-0.004 0-0.006 0-0.067 0-0.131-0.014-0.189-0.040l0.003 0.001c-0.104-0.039-0.177-0.138-0.177-0.254 0-0.002 0-0.004 0-0.006v0h0.19c0 0.1 0.060 0.149 0.179 0.149 0.045 0 0.081-0.009 0.107-0.026 0.023-0.021 0.036-0.045 0.036-0.077z"></path>
</symbol>
<symbol id="icon-company-tagline" viewBox="0 0 64 32">
<path fill="#afb1b8" d="M3.648 0.64h-0.235c-0.041-0.001-0.090-0.002-0.139-0.002s-0.097 0.001-0.146 0.002l0.007-0c-0.789 0-1.557 0.213-2.261 0.533l-0.107 0.043v4.757l0.213-0.085c0.697-0.237 1.501-0.383 2.336-0.405l0.011-0v0.64h-0.235c-1.086 0.051-2.092 0.345-2.98 0.829l0.036-0.018v-6.059c0.916-0.548 2.020-0.872 3.199-0.875h0.107c0.403 0.018 0.784 0.072 1.151 0.158l-0.042-0.008v0.597c-0.256-0.064-0.512-0.085-0.768-0.107h-0.171zM4.715 1.259h0.427c1.182-0.003 2.292-0.311 3.255-0.849l-0.034 0.017v5.973c-0.909 0.531-2.001 0.845-3.167 0.845-0.434 0-0.859-0.044-1.268-0.127l0.041 0.007v-5.973c0.223 0.052 0.485 0.090 0.754 0.106l0.014 0.001zM7.744 1.301l-0.213 0.064-0.597 0.192c-0.538 0.142-1.157 0.223-1.794 0.223-0.134 0-0.268-0.004-0.401-0.011l0.019 0.001h-0.171v4.843h0.128l0.427 0.043c0.925-0.002 1.798-0.222 2.572-0.612l-0.033 0.015 0.085-0.043v-4.715z"></path>
<path fill="#afb1b8" d="M0.576 9.003c-0.056-0.052-0.131-0.084-0.213-0.085h-0.15c-0.126 0.045-0.214 0.163-0.214 0.302 0 0.006 0 0.013 0.001 0.019l-0-0.001v0.811c0 0.064 0 0.128 0.043 0.171 0 0.043 0.043 0.085 0.064 0.107l0.128 0.064h0.235c0.126-0.052 0.213-0.174 0.213-0.316 0-0.001 0-0.002-0-0.004v0-0.085h-0.213v0.128l-0.085 0.085h-0.043c-0.006 0.001-0.013 0.002-0.020 0.002-0.036 0-0.067-0.017-0.086-0.044l-0-0-0.021-0.128v-0.853c0.017-0.038 0.054-0.064 0.098-0.064 0.003 0 0.006 0 0.009 0l-0-0c0.039 0.005 0.070 0.029 0.085 0.063l0 0.001c0.043 0.021 0.043 0.064 0.043 0.107v0.064h0.213v-0.085c-0.003-0.1-0.043-0.189-0.107-0.256l0 0zM1.835 9.003c-0.065-0.052-0.149-0.084-0.24-0.084-0.044 0-0.086 0.007-0.125 0.021l0.003-0.001c-0.043 0-0.085 0.021-0.107 0.064l-0.085 0.107-0.021 0.149v0.789l0.021 0.149c0 0.043 0.043 0.085 0.085 0.107 0.021 0.043 0.064 0.064 0.107 0.064 0.038 0.015 0.082 0.023 0.128 0.023s0.090-0.009 0.13-0.024l-0.002 0.001c0.043 0 0.085-0.021 0.107-0.064 0.066-0.062 0.107-0.15 0.107-0.248 0-0.003-0-0.006-0-0.008v0-0.789l-0.021-0.149c0-0.043-0.043-0.085-0.085-0.107zM1.749 10.027c0 0.001 0 0.001 0 0.002 0 0.041-0.016 0.078-0.043 0.105l0-0c-0.027 0.028-0.065 0.045-0.107 0.045s-0.080-0.017-0.107-0.045l-0-0c-0.026-0.027-0.043-0.064-0.043-0.105 0-0.001 0-0.002 0-0.002v0-0.789c0.009-0.025 0.024-0.047 0.042-0.064l0-0c0.027-0.028 0.065-0.045 0.107-0.045s0.080 0.017 0.107 0.045l0 0c0.026 0.027 0.043 0.064 0.043 0.105 0 0.001 0 0.002-0 0.002v-0 0.789zM3.499 10.389v-1.472h-0.213l-0.256 0.789-0.277-0.789h-0.213v1.472h0.213v-0.896l0.213 0.64h0.107l0.213-0.64v0.896h0.213zM4.693 9.024l-0.128-0.085h-0.469v1.451h0.213v-0.576h0.107c0.064 0 0.128 0 0.192-0.043l0.107-0.107 0.064-0.128c0.011-0.058 0.018-0.124 0.018-0.192s-0.006-0.134-0.019-0.199l0.001 0.007-0.085-0.128zM4.587 9.451l-0.021 0.107-0.064 0.043c-0.016 0.004-0.034 0.007-0.053 0.007s-0.037-0.002-0.055-0.007l0.002 0h-0.085v-0.491h0.107l0.085 0.021 0.064 0.064v0.277zM5.675 8.917h-0.171l-0.32 1.472h0.213l0.064-0.32h0.277l0.064 0.32h0.213l-0.341-1.472zM5.483 9.877l0.107-0.533 0.107 0.533h-0.213zM7.040 9.813l-0.341-0.896h-0.192v1.472h0.213v-0.875l0.32 0.875h0.213v-1.472h-0.213v0.896zM8.32 8.917l-0.171 0.576-0.192-0.576h-0.213l0.299 0.853v0.619h0.213v-0.64l0.277-0.832h-0.213zM0 10.795h0.107v0.299h0.064v-0.299h0.107v-0.043h-0.277v0.043zM0.853 10.752l-0.128 0.341h0.064l0.021-0.085h0.149l0.021 0.085h0.085l-0.149-0.341h-0.064zM0.853 10.965l0.021-0.149 0.064 0.128h-0.107zM1.707 10.965h0.064v0.043l-0.085 0.021c-0.002 0-0.005 0-0.007 0-0.022 0-0.042-0.008-0.057-0.022l0 0-0.043-0.085c0-0.085 0.043-0.128 0.107-0.128 0.006-0.002 0.014-0.004 0.021-0.004 0.035 0 0.064 0.029 0.064 0.064 0 0.001-0 0.003-0 0.004v-0h0.064c0-0.085-0.064-0.128-0.149-0.128l-0.128 0.043c-0.028 0.030-0.046 0.071-0.046 0.116 0 0.012 0.001 0.023 0.003 0.034l-0-0.001c0 0.043 0 0.085 0.043 0.128 0.030 0.027 0.070 0.043 0.114 0.043 0.005 0 0.010-0 0.015-0.001l-0.001 0c0.064 0 0.107 0 0.149-0.064v-0.128h-0.149v0.064zM2.56 10.752h-0.085v0.341h0.235v-0.064h-0.149v-0.277zM3.264 10.752h-0.064v0.341h0.064v-0.341zM3.968 10.965l-0.128-0.213h-0.064v0.341h0.064v-0.213l0.128 0.213h0.064v-0.341h-0.064v0.213zM4.608 10.944h0.171v-0.064h-0.171v-0.085h0.192v-0.043h-0.256v0.341h0.256v-0.064h-0.192v-0.085zM6.187 10.88h-0.149v-0.128h-0.064v0.341h0.064v-0.149h0.128v0.149h0.064v-0.341h-0.043v0.128zM6.827 10.944h0.149v-0.064h-0.149v-0.085h0.192v-0.043h-0.256v0.341h0.256v-0.064h-0.192v-0.085zM7.68 10.944c0.064 0 0.085-0.043 0.085-0.107 0-0.002 0-0.005 0-0.007 0-0.022-0.008-0.042-0.022-0.057l0 0c-0.026-0.014-0.057-0.022-0.089-0.022-0.006 0-0.012 0-0.018 0.001l0.001-0h-0.149v0.341h0.085v-0.149h0.043l0.021 0.043 0.085 0.107h0.085l-0.043-0.064-0.085-0.085zM7.616 10.88h-0.043v-0.085h0.107c0.024 0 0.043 0.019 0.043 0.043s-0.019 0.043-0.043 0.043v0c-0.010 0.002-0.021 0.002-0.032 0.002s-0.022-0.001-0.033-0.003l0.001 0zM8.341 10.944h0.171v-0.064h-0.171v-0.085h0.192v-0.043h-0.256v0.341h0.256v-0.064h-0.192v-0.085z"></path>
</symbol>
<symbol id="icon-company-tag-line" viewBox="0 0 64 32">
<path fill="#afb1b8" d="M10.116 4.565c-0.081-0.105-0.129-0.238-0.129-0.382 0-0.014 0-0.028 0.001-0.042l-0 0.002v-0.614c0-0.19 0.043-0.333 0.128-0.431s0.235-0.147 0.442-0.145c0.194 0 0.335 0.043 0.416 0.124 0.090 0.107 0.132 0.237 0.124 0.369v0.143h-0.35v-0.145c0-0.049-0.002-0.096-0.011-0.143-0.006-0.035-0.024-0.064-0.049-0.085l-0-0c-0.032-0.022-0.071-0.035-0.113-0.035-0.005 0-0.010 0-0.015 0.001l0.001-0c-0.004-0-0.008-0-0.013-0-0.045 0-0.086 0.014-0.12 0.037l0.001-0c-0.030 0.023-0.051 0.055-0.060 0.093l-0 0.001c-0.009 0.049-0.013 0.1-0.013 0.149v0.747c-0.006 0.075 0.011 0.145 0.045 0.211 0.017 0.021 0.043 0.041 0.070 0.051 0.020 0.008 0.043 0.012 0.067 0.012 0.008 0 0.016-0 0.024-0.001l-0.001 0c0.005 0 0.011 0.001 0.017 0.001 0.040 0 0.077-0.012 0.108-0.033l-0.001 0c0.028-0.023 0.047-0.054 0.053-0.091l0-0.001c0.006-0.049 0.011-0.1 0.011-0.149v-0.154h0.35v0.139c0.009 0.137-0.034 0.273-0.122 0.386-0.081 0.092-0.218 0.137-0.418 0.137-0.203 0-0.354-0.049-0.442-0.149zM11.575 4.574c-0.090-0.096-0.132-0.235-0.132-0.42v-0.646c0-0.183 0.043-0.32 0.132-0.416 0.087-0.094 0.235-0.141 0.444-0.139 0.205 0 0.352 0.045 0.439 0.139 0.090 0.094 0.134 0.233 0.134 0.416v0.646c0 0.183-0.045 0.322-0.134 0.418-0.090 0.098-0.235 0.145-0.439 0.145s-0.356-0.049-0.444-0.143zM12.181 4.418c0.032-0.060 0.047-0.126 0.043-0.192v-0.791c0.004-0.064-0.011-0.128-0.043-0.188-0.018-0.023-0.042-0.040-0.069-0.051l-0.001-0c-0.020-0.008-0.043-0.012-0.067-0.012-0.009 0-0.017 0.001-0.025 0.002l0.001-0c-0.008-0.001-0.016-0.002-0.025-0.002-0.025 0-0.048 0.005-0.070 0.013l0.001-0c-0.029 0.011-0.054 0.028-0.072 0.051l-0 0c-0.030 0.058-0.045 0.124-0.043 0.188v0.796c-0.002 0.064 0.011 0.132 0.043 0.192 0.044 0.039 0.102 0.063 0.165 0.063 0.032 0 0.062-0.006 0.090-0.017l-0.002 0.001c0.030-0.011 0.053-0.028 0.075-0.047v-0.004zM13.013 2.97h0.378l0.284 1.195 0.29-1.195h0.367l0.036 1.724h-0.271l-0.030-1.197-0.277 1.197h-0.222l-0.29-1.201-0.026 1.201h-0.275l0.034-1.724zM14.79 2.97h0.587c0.339 0 0.508 0.164 0.508 0.491 0 0.311-0.177 0.469-0.533 0.469h-0.201v0.764h-0.363l0.002-1.724zM15.292 3.708c0.036 0.002 0.073 0 0.107-0.009 0.034-0.011 0.066-0.026 0.094-0.047 0.041-0.058 0.060-0.128 0.051-0.194 0-0.053-0.004-0.107-0.017-0.158-0.006-0.018-0.016-0.034-0.028-0.047l0 0c-0.012-0.014-0.027-0.025-0.044-0.034l-0.001-0c-0.051-0.021-0.107-0.030-0.162-0.028h-0.141v0.516h0.141zM16.405 2.97h0.39l0.401 1.724h-0.339l-0.079-0.397h-0.348l-0.081 0.397h-0.341l0.399-1.724zM16.74 4.096l-0.137-0.723-0.134 0.725h0.271zM17.519 2.97h0.254l0.484 0.983v-0.981h0.303v1.722h-0.241l-0.489-1.024v1.024h-0.311v-1.724zM19.264 4.036l-0.405-1.065h0.341l0.245 0.683 0.23-0.683h0.333l-0.397 1.067v0.655h-0.35v-0.657zM10.677 5.446v0.090h-0.297v0.702h-0.124v-0.702h-0.299v-0.090h0.719zM11.605 6.238h-0.098c-0.010 0-0.019-0.003-0.026-0.009l0 0c-0.007-0.004-0.013-0.010-0.017-0.017l-0-0-0.085-0.188h-0.41l-0.085 0.188c-0.003 0.008-0.007 0.016-0.013 0.021v0c-0.007 0.004-0.014 0.007-0.023 0.007-0.002 0-0.003-0-0.005-0l0 0h-0.096l0.363-0.789h0.128l0.365 0.787zM11.004 5.943h0.341l-0.145-0.32c-0.009-0.021-0.018-0.046-0.025-0.073l-0.001-0.004-0.015 0.043-0.013 0.034-0.143 0.32zM12.228 6.159h0.068c0.040-0.002 0.078-0.010 0.114-0.022l-0.003 0.001 0.047-0.021v-0.177h-0.145c-0 0-0 0-0.001 0-0.007 0-0.013-0.002-0.019-0.006l0 0c-0.002-0.002-0.003-0.004-0.004-0.006l-0-0-0.002-0.009v-0.060h0.282v0.303c-0.069 0.043-0.152 0.072-0.241 0.079l-0.002 0c-0.036 0.004-0.070 0.006-0.107 0.006-0.064 0-0.124-0.011-0.183-0.030-0.056-0.020-0.104-0.048-0.146-0.084l0.001 0c-0.038-0.034-0.069-0.075-0.091-0.121l-0.001-0.002c-0.023-0.053-0.034-0.109-0.034-0.164-0-0.004-0-0.009-0-0.013 0-0.111 0.050-0.21 0.128-0.276l0.001-0c0.038-0.036 0.090-0.064 0.143-0.083 0.057-0.019 0.122-0.030 0.19-0.030 0.037 0 0.073 0.003 0.108 0.010l-0.004-0.001c0.060 0.009 0.114 0.027 0.163 0.053l-0.003-0.001c0.021 0.011 0.043 0.026 0.064 0.041l-0.036 0.049c-0.003 0.005-0.008 0.008-0.013 0.011l-0 0c-0.004 0.002-0.009 0.004-0.015 0.004h-0c-0.008-0-0.015-0.003-0.022-0.007l0 0c-0.013-0.004-0.023-0.011-0.036-0.019-0.058-0.028-0.125-0.045-0.197-0.045-0.004 0-0.007 0-0.010 0h0.001c-0.002-0-0.005-0-0.007-0-0.048 0-0.094 0.008-0.136 0.022l0.003-0.001c-0.043 0.015-0.077 0.036-0.107 0.064-0.029 0.026-0.052 0.058-0.068 0.094l-0.001 0.002c-0.032 0.085-0.032 0.179 0 0.265 0.050 0.107 0.157 0.18 0.281 0.18 0.014 0 0.027-0.001 0.041-0.003l-0.002 0zM13.385 6.146h0.395v0.092h-0.516v-0.789h0.124l-0.002 0.698zM14.191 6.238h-0.124v-0.789h0.124v0.789zM14.652 5.451c0.009 0.004 0.015 0.009 0.019 0.015l0.529 0.595v-0.617h0.107v0.794h-0.060c-0.011 0-0.019 0-0.028-0.004-0.007-0.004-0.014-0.009-0.019-0.015l-0-0-0.529-0.597v0.617h-0.105v-0.789h0.085zM16.222 5.446v0.085h-0.439v0.262h0.356v0.085h-0.356v0.269h0.439v0.085h-0.567v-0.787h0.567zM3.234 0.567l5.504 1.348v4.727l-5.504-1.348v-4.727zM2.882 0.162v5.363l6.208 1.523v-5.363l-6.21-1.521z"></path>
<path fill="#afb1b8" d="M6.208 9.536l-6.208-1.527v-5.357l6.208 1.523v5.359z"></path>
<path fill="#afb1b8" d="M2.985 0.506l5.431 1.333-2.31 1.993-5.431-1.331 2.31-1.995zM2.882 0.164l-2.882 2.487 6.208 1.523 2.88-2.49-6.208-1.521zM6.558 9.233l2.532-2.187-2.532-0.621v2.807z"></path>
</symbol>
<symbol id="icon-company-yaco" viewBox="0 0 64 32">
<path fill="#afb1b8" d="M1.28 0l1.493 1.414h-2.773v6.863h7.253v-2.624l1.493 1.412v-7.066h-7.467zM7.189 5.489l-4.243-4.013h4.243v4.011zM5.871 7.277h-4.723v-4.619h0.335v4.305h4.388v0.314zM2.263 9.195l-0.175 0.358-0.175-0.358h-0.143l0.256 0.48v0.277h0.13v-0.277l0.256-0.48h-0.149zM2.483 9.952l0.060-0.175h0.294l0.064 0.175h0.137l-0.288-0.757h-0.117l-0.288 0.757h0.139zM2.69 9.355l0.111 0.316h-0.22l0.109-0.316zM3.386 9.653c-0.017 0.026-0.028 0.059-0.028 0.093 0 0 0 0 0 0.001v-0c0 0.064 0.021 0.117 0.066 0.156 0.045 0.041 0.107 0.060 0.181 0.060s0.139-0.021 0.192-0.060l0.043 0.049h0.149l-0.113-0.13c0.043-0.060 0.064-0.137 0.064-0.23h-0.107c0 0.051-0.013 0.098-0.034 0.139l-0.145-0.171 0.051-0.041c0.036-0.026 0.064-0.051 0.079-0.079 0.015-0.024 0.023-0.054 0.023-0.085 0-0.048-0.020-0.091-0.053-0.122l-0-0c-0.034-0.030-0.079-0.049-0.128-0.049-0.002 0-0.004 0-0.006 0h0c-0.004-0-0.008-0-0.012-0-0.052 0-0.099 0.020-0.135 0.052l0-0c-0.033 0.034-0.054 0.080-0.054 0.13 0 0.004 0 0.007 0 0.011l-0-0.001c0 0.026 0.006 0.051 0.017 0.077s0.032 0.058 0.062 0.094c-0.044 0.029-0.082 0.065-0.112 0.105l-0.001 0.001zM3.727 9.82c-0.032 0.026-0.074 0.042-0.119 0.043h-0c-0.002 0-0.004 0-0.006 0-0.032 0-0.061-0.012-0.083-0.032l0 0c-0.021-0.021-0.034-0.049-0.034-0.081 0-0.002 0-0.003 0-0.005v0c0-0.043 0.021-0.077 0.064-0.109l0.015-0.013 0.164 0.196zM3.593 9.483c-0.036-0.043-0.053-0.079-0.053-0.109 0-0.026 0.006-0.047 0.021-0.064 0.014-0.014 0.033-0.024 0.054-0.024 0.001 0 0.002 0 0.003 0h-0c0.023 0 0.043 0.006 0.058 0.021 0.015 0.013 0.021 0.030 0.021 0.049 0 0.030-0.011 0.055-0.032 0.075l-0.015 0.013-0.058 0.038zM4.826 9.897c0.053-0.047 0.083-0.109 0.090-0.192h-0.13c-0.006 0.055-0.023 0.094-0.049 0.117-0.028 0.023-0.064 0.034-0.117 0.034-0.002 0-0.004 0-0.006 0-0.050 0-0.095-0.025-0.121-0.064l-0-0.001c-0.030-0.043-0.045-0.107-0.045-0.188v-0.066c0-0.081 0.015-0.143 0.047-0.183 0.030-0.043 0.075-0.064 0.132-0.064 0.049 0 0.085 0.013 0.111 0.036s0.043 0.064 0.049 0.117h0.13c-0.004-0.076-0.037-0.143-0.087-0.192l-0-0c-0.050-0.043-0.116-0.069-0.188-0.069-0.005 0-0.010 0-0.015 0l0.001-0c-0.064 0-0.117 0.015-0.164 0.043-0.047 0.032-0.085 0.073-0.109 0.128-0.026 0.053-0.038 0.117-0.038 0.188v0.073c0 0.068 0.013 0.13 0.038 0.183s0.060 0.094 0.107 0.122c0.047 0.030 0.1 0.043 0.16 0.043 0.085 0 0.156-0.021 0.207-0.066zM5.6 9.79c0.026-0.058 0.038-0.122 0.038-0.196v-0.043c0-0.075-0.013-0.139-0.038-0.192-0.046-0.104-0.148-0.175-0.266-0.175-0.004 0-0.008 0-0.011 0l0.001-0c-0.060 0-0.115 0.015-0.162 0.045-0.049 0.030-0.085 0.075-0.111 0.13-0.026 0.058-0.041 0.122-0.041 0.196v0.043c0 0.073 0.015 0.137 0.041 0.192s0.064 0.098 0.111 0.128c0.049 0.030 0.105 0.045 0.164 0.045 0.064 0 0.117-0.015 0.166-0.043 0.047-0.032 0.085-0.075 0.109-0.13zM5.459 9.361c0.032 0.043 0.049 0.109 0.049 0.192v0.041c0 0.085-0.017 0.149-0.049 0.194-0.028 0.040-0.074 0.066-0.126 0.066-0.003 0-0.006-0-0.008-0l0 0c-0.002 0-0.004 0-0.006 0-0.053 0-0.1-0.026-0.128-0.066l-0-0c-0.031-0.050-0.050-0.11-0.050-0.174 0-0.007 0-0.014 0.001-0.021l-0 0.001v-0.043c0-0.083 0.017-0.145 0.049-0.192 0.029-0.039 0.074-0.064 0.126-0.064 0.003 0 0.006 0 0.009 0l-0-0c0.058 0 0.102 0.021 0.134 0.064z"></path>
</symbol>
<symbol id="icon-contact-envelope" viewBox="0 0 64 32">
<path fill="#afb1b8" d="M3.093 0h-2.773c-0.171 0-0.32 0.149-0.32 0.32v1.92c0 0.171 0.149 0.32 0.32 0.32h2.773c0.171 0 0.32-0.149 0.32-0.32v-1.92c0-0.171-0.149-0.32-0.32-0.32zM3.093 0.213h0.043l-1.429 1.237-1.429-1.237h2.816zM3.093 2.347h-2.773c-0.059 0-0.107-0.048-0.107-0.107v0-1.792l1.429 1.237c0.018 0.013 0.040 0.021 0.064 0.021s0.046-0.008 0.064-0.022l-0 0 1.429-1.259v1.792c0 0.064-0.043 0.107-0.107 0.107z"></path>
</symbol>
<symbol id="icon-contact-smartphone" viewBox="0 0 64 32">
<path fill="#afb1b8" d="M1.813 0h-1.493c-0.177 0-0.32 0.143-0.32 0.32v2.773c0 0.177 0.143 0.32 0.32 0.32h1.493c0.177 0 0.32-0.143 0.32-0.32v-2.773c0-0.177-0.143-0.32-0.32-0.32zM0.32 0.213h1.493c0.060 0 0.107 0.047 0.107 0.107v2.24h-1.707v-2.24c0-0.060 0.047-0.107 0.107-0.107zM1.813 3.2h-1.493c-0.059 0-0.107-0.048-0.107-0.107v0-0.32h1.707v0.32c0 0.059-0.048 0.107-0.107 0.107v0z"></path>
<path fill="#afb1b8" d="M0.501 2.931c0.043 0.038 0.043 0.102 0 0.141-0.020 0.018-0.046 0.028-0.075 0.028s-0.055-0.011-0.075-0.028l0 0c-0.019-0.018-0.031-0.043-0.031-0.070s0.012-0.053 0.031-0.070l0-0c0.043-0.038 0.107-0.038 0.149 0z"></path>
</symbol>
<symbol id="icon-feature-antenna" viewBox="0 0 64 32">
<path fill="#afb1b8" d="M14.357 10.304l-3.947-3.968 0.448-2.133c0.107 0.021 0.213 0.064 0.363 0.064 0.003 0 0.008 0 0.012 0 0.554 0 1.003-0.449 1.003-1.003s-0.449-1.003-1.003-1.003c-0.554 0-1.003 0.449-1.003 1.003 0 0.115 0.019 0.224 0.055 0.327l-0.002-0.007-2.325 0.277-3.776-3.797c-0.043-0.043-0.107-0.064-0.171-0.064s-0.128 0.021-0.171 0.064l-0.704 0.704c-0.107 0.107-0.107 0.256 0 0.363l0.384 0.363c-0.527 0.958-0.837 2.1-0.837 3.313 0 1.942 0.793 3.698 2.074 4.963l0.001 0.001-0.021 0.256v2.901h-2.987c-0.006-0-0.014-0-0.021-0-0.683 0-1.237 0.554-1.237 1.237 0 0 0 0 0 0v0 0.491c0 0.149 0.128 0.256 0.256 0.256h11.456c0.128 0 0.235-0.107 0.235-0.256v-0.491c0-0.683-0.555-1.237-1.237-1.237h-2.987v-1.28c0.42 0.089 0.902 0.14 1.396 0.14 1.207 0 2.343-0.305 3.335-0.841l-0.037 0.018 0.405 0.384c0.043 0.043 0.107 0.064 0.171 0.064s0.128-0.021 0.171-0.064l0.704-0.704c0.107-0.107 0.107-0.256 0-0.363zM10.88 2.901c0.087-0.079 0.202-0.127 0.329-0.127 0.271 0 0.491 0.22 0.491 0.491 0 0.259-0.201 0.471-0.456 0.489l-0.002 0c-0.010 0.001-0.022 0.001-0.033 0.001-0.271 0-0.491-0.22-0.491-0.491 0-0.144 0.062-0.274 0.161-0.363l0-0zM10.304 4.544l-0.277 1.365-0.555-0.533 0.832-0.832zM10.027 4.117l-0.896 0.896-0.704-0.704 1.6-0.192zM11.2 13.44c0.427 0 0.747 0.341 0.747 0.747v0.256h-10.944v-0.256c0-0.427 0.32-0.747 0.747-0.747h9.451zM7.723 12.437v0.512h-2.496v-0.512h2.496zM5.227 11.947v-1.899c0-0.597 0.555-1.088 1.237-1.088 0.704 0 1.259 0.491 1.259 1.088v1.899h-2.496zM8.213 11.157v-1.131c0-0.853-0.789-1.579-1.749-1.579-0.619 0-1.195 0.299-1.515 0.832-1.106-1.158-1.786-2.73-1.786-4.461 0-1.082 0.266-2.102 0.736-2.999l-0.017 0.036 8.683 8.747c-0.848 0.439-1.85 0.696-2.913 0.696-0.51 0-1.007-0.059-1.483-0.171l0.044 0.009zM13.483 10.837l-0.341-0.384-9.131-9.173-0.384-0.32 0.363-0.363 3.691 3.733 6.187 6.123-0.363 0.363z"></path>
<path fill="#2196f3" style="fill: var(--color2, #2196f3)" d="M6.485 9.451c-0.412 0-0.747 0.334-0.747 0.747s0.334 0.747 0.747 0.747v0c0.412 0 0.747-0.334 0.747-0.747s-0.334-0.747-0.747-0.747v0zM6.656 10.389c-0.047 0.052-0.115 0.085-0.191 0.085-0.141 0-0.256-0.115-0.256-0.256s0.114-0.255 0.255-0.256h0c0 0 0.001 0 0.001 0 0.141 0 0.256 0.115 0.256 0.256 0 0.066-0.025 0.126-0.065 0.171l0-0z"></path>
</symbol>
<symbol id="icon-feature-astronaut" viewBox="0 0 64 32">
<path fill="#2196f3" style="fill: var(--color2, #2196f3)" d="M14.933 2.112c-0.043-0.085-0.128-0.149-0.213-0.171l-0.896-0.128-0.384-0.811c-0.085-0.171-0.363-0.171-0.448 0l-0.427 0.811-0.853 0.128c-0.124 0.020-0.217 0.125-0.217 0.253 0 0.067 0.026 0.128 0.068 0.174l0.64 0.64-0.149 0.875c-0.001 0.007-0.001 0.015-0.001 0.024 0 0.141 0.115 0.256 0.256 0.256 0.039 0 0.076-0.009 0.109-0.024l-0.002 0.001 0.789-0.427 0.789 0.427c0.032 0.015 0.069 0.024 0.108 0.024 0.141 0 0.256-0.115 0.256-0.256 0-0.008-0-0.017-0.001-0.025l0 0.001-0.149-0.896 0.64-0.64c0.085-0.043 0.107-0.149 0.064-0.235zM13.781 2.731c-0.064 0.064-0.085 0.149-0.085 0.213l0.085 0.533-0.469-0.256c-0.031-0.015-0.068-0.023-0.107-0.023s-0.075 0.009-0.108 0.024l0.002-0.001-0.469 0.256 0.085-0.533c0-0.064 0-0.149-0.064-0.213l-0.384-0.363 0.512-0.085c0.085 0 0.149-0.064 0.213-0.128l0.213-0.469 0.235 0.448c0.043 0.064 0.107 0.128 0.192 0.128l0.512 0.085-0.363 0.363zM12.203 9.579h-0.512v0.491h0.512v-0.469zM12.203 10.581h-0.512v0.491h0.512v-0.491zM12.693 10.069h-0.491v0.512h0.491v-0.512zM11.691 10.069h-0.491v0.512h0.491v-0.512zM10.453 12.309h-0.491v0.512h0.491v-0.512zM10.453 13.312h-0.491v0.491h0.491v-0.491zM10.944 12.8h-0.491v0.512h0.491v-0.512zM9.963 12.8h-0.512v0.512h0.512v-0.512zM7.467 11.307h-0.491v0.512h0.491v-0.512zM7.467 12.309h-0.491v0.512h0.491v-0.512zM7.957 11.819h-0.491v0.491h0.491v-0.491zM6.976 11.819h-0.512v0.491h0.512v-0.491zM2.731 2.859h-0.491v0.491h0.491v-0.491zM2.731 3.84h-0.491v0.512h0.491v-0.512z"></path>
<path fill="#2196f3" style="fill: var(--color2, #2196f3)" d="M3.243 3.349h-0.512v0.512h0.512v-0.512zM2.24 3.349h-0.491v0.512h0.491v-0.512z"></path>
<path fill="#afb1b8" d="M11.52 6.613c-0.124-0.176-0.312-0.3-0.528-0.341l-0.005-0.001c-0.213-0.021-0.448 0.043-0.64 0.171l-0.576 0.448-0.896 0.661-0.64-0.256c1.121-0.527 1.884-1.646 1.884-2.944 0-1.778-1.431-3.222-3.205-3.242l-0.002-0c-1.782 0.012-3.222 1.459-3.222 3.243 0 0.65 0.191 1.255 0.52 1.762l-0.008-0.013h-1.429l-1.493 0.768-0.896 0.427h-0.043c-0.245 0.148-0.406 0.412-0.406 0.715 0 0.46 0.373 0.832 0.832 0.832 0.157 0 0.305-0.044 0.43-0.12l-0.004 0.002 0.64-0.341 1.067-0.533h0.64l-2.517 2.496-0.64 0.64c-0.133 0.138-0.215 0.326-0.215 0.533s0.082 0.395 0.216 0.534l-0-0c0.14 0.146 0.337 0.237 0.555 0.237s0.415-0.091 0.554-0.237l0-0 0.64-0.597 0.789-0.597 0.427 0.427-0.832 0.811-0.597 0.64c-0.14 0.139-0.226 0.331-0.226 0.544s0.086 0.405 0.226 0.544l0 0c0.142 0.141 0.338 0.228 0.555 0.228s0.412-0.087 0.555-0.228l-0 0 1.6-1.6 0.469-0.448 2.411-2.667 1.621 0.235c0.019 0.006 0.041 0.009 0.064 0.009s0.045-0.003 0.066-0.009l-0.002 0 0.021-0.021h0.021l1.493-1.003 0.021-0.021h0.021l0.597-0.576c0.161-0.152 0.261-0.367 0.261-0.605 0-0.181-0.058-0.349-0.156-0.485l0.002 0.002zM1.024 8.299c-0.085 0.043-0.171 0.043-0.277 0-0.123-0.053-0.208-0.174-0.208-0.314 0-0.105 0.047-0.199 0.122-0.261l0.001-0 0.597-0.299 0.149 0.427 0.064 0.213-0.448 0.213zM2.645 7.445l-0.725 0.363-0.128-0.341-0.085-0.256 0.939-0.469v0.725zM9.685 4.352c0 0.427-0.085 0.832-0.277 1.195l-1.941-0.896c-0.019-0.265-0.157-0.495-0.36-0.638l-0.003-0.002 0.683-2.261c1.109 0.341 1.92 1.387 1.92 2.603zM4.203 4.352c0.015-1.508 1.241-2.726 2.752-2.726 0.105 0 0.209 0.006 0.311 0.017l-0.013-0.001-0.661 2.197c-0.013-0.001-0.028-0.001-0.043-0.001-0.471 0-0.853 0.382-0.853 0.853 0 0 0 0.001 0 0.001v-0c-0.006 0.038-0.009 0.082-0.009 0.126 0 0.471 0.382 0.853 0.853 0.853 0.363 0 0.674-0.227 0.797-0.547l0.002-0.006 1.792 0.832c-0.508 0.668-1.303 1.095-2.198 1.095-1.508 0-2.732-1.212-2.752-2.715l-0-0.002zM6.976 4.715c0 0.213-0.171 0.384-0.384 0.384s-0.363-0.171-0.363-0.384 0.149-0.363 0.363-0.363 0.384 0.171 0.384 0.363zM1.173 11.755c-0.107 0.085-0.299 0.085-0.405 0-0.061-0.051-0.1-0.128-0.1-0.213s0.039-0.162 0.1-0.213l0-0 0.448-0.427 0.405 0.384-0.469 0.448zM2.667 13.461c-0.107 0.128-0.277 0.128-0.384 0-0.048-0.050-0.077-0.117-0.077-0.192s0.029-0.142 0.077-0.192l0.427-0.427 0.213 0.171 0.213 0.213-0.469 0.427zM4.288 11.861l-0.811 0.811-0.213-0.171-0.192-0.213 0.832-0.832 0.043-0.064v-0.085l0.021-0.043v-0.085l-0.064-0.064v-0.021l-0.747-0.747h-0.043l-0.043-0.043h-0.043l-0.043-0.021h-0.085l-0.043 0.021h-0.085l-0.811 0.64-0.427-0.427 1.109-1.109 2.048 2.005-0.427 0.427zM7.488 8.576h-0.021c-0.009-0.001-0.019-0.002-0.029-0.002-0.063 0-0.121 0.025-0.163 0.066l0-0v0.021l-2.24 2.432-2.027-1.984 1.323-1.323c0.041-0.045 0.066-0.105 0.066-0.171 0-0.135-0.104-0.245-0.236-0.255l-0.001-0h-1.045v-0.747h1.451c0.591 0.612 1.418 0.992 2.335 0.992 0.208 0 0.411-0.020 0.608-0.057l-0.020 0.003 0.064 0.043 1.131 0.427 0.064 0.363 0.085 0.427-1.387-0.213zM9.365 8.661l-0.149-0.725 0.683-0.491 0.171 0.213 0.256 0.363-0.96 0.64zM11.115 7.339l-0.384 0.384-0.427-0.597 0.384-0.277c0.064-0.064 0.149-0.085 0.235-0.085 0.174 0.017 0.308 0.163 0.308 0.34 0 0.092-0.036 0.175-0.095 0.236l0-0z"></path>
<path fill="#afb1b8" d="M6.357 8.661l-1.024-1.003c-0.107-0.107-0.256-0.107-0.363 0l-1.003 1.003c-0.040 0.045-0.065 0.105-0.065 0.171s0.025 0.126 0.065 0.171l-0-0 1.003 1.003c0.046 0.046 0.111 0.075 0.181 0.075s0.135-0.029 0.181-0.075v0l1.003-1.003c0.040-0.045 0.065-0.105 0.065-0.171s-0.025-0.126-0.065-0.171l0 0zM5.163 9.472l-0.64-0.64 0.64-0.64 0.64 0.64-0.64 0.64zM8 2.347l-0.107 0.512c0.021 0 0.811 0.213 0.811 1.003h0.469c0-0.96-0.768-1.387-1.195-1.493zM9.195 4.352h-0.491v0.491h0.469v-0.491z"></path>
</symbol>
<symbol id="icon-feature-clock" viewBox="0 0 64 32">
<path fill="#afb1b8" d="M14.613 7.147c0-0.002 0-0.005 0-0.007 0-3.947-3.2-7.147-7.147-7.147s-7.147 3.2-7.147 7.147c0 3.201 2.104 5.91 5.005 6.82l0.051 0.014c0.064 0 0.107-0.021 0.171-0.064 0.064-0.021 0.107-0.085 0.128-0.171l1.792-5.696c0.494-0.001 0.894-0.402 0.894-0.896s-0.401-0.896-0.896-0.896c-0.139 0-0.27 0.031-0.387 0.088l0.005-0.002-2.389-2.389c-0.055-0.055-0.13-0.088-0.213-0.088-0.167 0-0.302 0.135-0.302 0.302 0 0.083 0.034 0.159 0.088 0.213l2.389 2.389c-0.053 0.11-0.084 0.238-0.084 0.374 0 0.281 0.132 0.531 0.338 0.691l0.002 0.001-1.707 5.461c-2.534-0.943-4.307-3.341-4.307-6.154 0-3.617 2.932-6.549 6.549-6.549s6.549 2.932 6.549 6.549c0 2.652-1.577 4.936-3.844 5.966l-0.041 0.017-0.171-0.875c-0.026-0.14-0.148-0.245-0.294-0.245-0.076 0-0.145 0.028-0.197 0.074l0-0-1.792 1.6c-0.064 0.055-0.104 0.136-0.104 0.227 0 0.134 0.088 0.247 0.209 0.285l0.002 0.001 2.283 0.747c0.027 0.009 0.058 0.014 0.091 0.014 0.165 0 0.299-0.134 0.299-0.299 0-0.020-0.002-0.040-0.006-0.059l0 0.002-0.171-0.853c2.579-1.11 4.352-3.63 4.352-6.563 0-0.003 0-0.005 0-0.008v0zM7.467 6.827c0.165 0 0.299 0.134 0.299 0.299s-0.134 0.299-0.299 0.299v0c-0.165 0-0.299-0.134-0.299-0.299s0.134-0.299 0.299-0.299v0zM8.448 13.76l1.024-0.917 0.277 1.323-1.301-0.427z"></path>
<path fill="#2196f3" style="fill: var(--color2, #2196f3)" d="M7.168 1.493v0.597c0 0.165 0.134 0.299 0.299 0.299s0.299-0.134 0.299-0.299v-0.597c0-0.165-0.134-0.299-0.299-0.299s-0.299 0.134-0.299 0.299v0zM1.813 6.827c-0.171 0-0.309 0.138-0.309 0.309s0.139 0.309 0.309 0.309h0.597c0.165 0 0.299-0.134 0.299-0.299s-0.134-0.299-0.299-0.299h-0.597zM13.12 7.445c0.165 0 0.299-0.134 0.299-0.299s-0.134-0.299-0.299-0.299h-0.597c-0.165 0-0.299 0.134-0.299 0.299s0.134 0.299 0.299 0.299h0.597z"></path>
</symbol>
<symbol id="icon-feature-diagram" viewBox="0 0 64 32">
<path fill="#2196f3" style="fill: var(--color2, #2196f3)" d="M6.965 6.985h0.497v2.238h-0.497v-2.24zM8.956 7.979h0.497v1.244h-0.497v-1.244zM4.975 8.725h0.497v0.497h-0.497v-0.497zM3.482 8.476h0.499v0.747h-0.499v-0.747z"></path>
<path fill="#afb1b8" d="M0.747 13.203h11.94c0.412 0 0.747-0.334 0.747-0.747v0-0.996c0-0.412-0.334-0.747-0.747-0.747v0h-0.25v-6.199l1.414-1.34c0.096 0.048 0.21 0.077 0.33 0.077 0.415 0 0.751-0.336 0.751-0.751s-0.336-0.751-0.751-0.751c-0.415 0-0.751 0.336-0.751 0.751 0 0.115 0.026 0.225 0.073 0.323l-0.002-0.005-1.065 1.009v-0.574c0-0.412-0.334-0.747-0.747-0.747v0h-9.95c-0.412 0-0.747 0.334-0.747 0.747v0 7.465h-0.247c-0.412 0-0.747 0.334-0.747 0.747v0 0.994c0 0.412 0.334 0.747 0.747 0.747v0zM14.18 2.257c0.007-0.001 0.015-0.001 0.023-0.001 0.138 0 0.25 0.112 0.25 0.25s-0.112 0.25-0.25 0.25c-0.008 0-0.016-0-0.024-0.001l0.001 0c-0.128-0.012-0.227-0.119-0.227-0.249s0.099-0.236 0.226-0.248l0.001-0zM1.493 3.251c0-0.137 0.111-0.247 0.247-0.247h9.95c0.139 0 0.25 0.111 0.25 0.247v1.045l-0.497 0.474v-1.020c0-0.139-0.111-0.25-0.25-0.25h-8.954c-0.137 0-0.247 0.111-0.247 0.25v6.219c0 0.137 0.111 0.247 0.247 0.247h8.956c0.139 0 0.25-0.111 0.25-0.247v-4.514l0.497-0.471v5.732h-10.449v-7.465zM3.733 6.485c-0.002-0-0.004-0-0.006-0-0.412 0-0.747 0.334-0.747 0.747s0.334 0.747 0.747 0.747c0.202 0 0.386-0.081 0.521-0.211l-0 0 0.866 0.435c0.1 0.049 0.222 0.026 0.297-0.058l1.837-2.069 1.807 1.355c0.098 0.073 0.235 0.064 0.32-0.017l1.572-1.489v3.797h-8.459v-5.726h8.459v1.242l-1.76 1.666-1.822-1.365c-0.041-0.031-0.093-0.050-0.15-0.050-0.074 0-0.141 0.032-0.187 0.084l-0 0-1.862 2.097-0.698-0.35c0.006-0.030 0.009-0.060 0.011-0.090 0-0.412-0.334-0.747-0.747-0.747v0zM3.981 7.232c0 0.138-0.112 0.25-0.25 0.25s-0.25-0.112-0.25-0.25v0c0-0.138 0.112-0.25 0.25-0.25s0.25 0.112 0.25 0.25v0zM5.474 11.213h2.483v0.247c0 0.139-0.111 0.25-0.247 0.25h-1.99c-0.137 0-0.25-0.111-0.25-0.25v-0.247zM0.495 11.46c0-0.137 0.111-0.247 0.25-0.247h4.228v0.247c0 0.412 0.334 0.747 0.747 0.747v0h1.99c0.412 0 0.747-0.334 0.747-0.747v0-0.247h4.228c0.137 0 0.247 0.111 0.247 0.247v0.996c0 0.137-0.111 0.247-0.247 0.247h-11.938c-0.139 0-0.25-0.111-0.25-0.247v-0.996z"></path>
</symbol>
<symbol id="icon-sm-facebook" viewBox="0 0 64 32">
<path fill="#afb1b8" d="M2.844 0.708h0.39v-0.678c-0.068-0.009-0.299-0.030-0.567-0.030-0.563 0-0.947 0.354-0.947 1.003v0.597h-0.619v0.757h0.619v1.909h0.759v-1.907h0.595l0.094-0.759h-0.689v-0.523c0-0.22 0.060-0.369 0.365-0.369z"></path>
</symbol>
<symbol id="icon-sm-instagram" viewBox="0 0 64 32">
<path fill="#afb1b8" d="M4.262 1.254c-0.003-0.187-0.039-0.365-0.102-0.529l0.004 0.011c-0.057-0.148-0.141-0.274-0.247-0.377l-0-0c-0.107-0.107-0.235-0.192-0.378-0.245-0.154-0.060-0.331-0.096-0.517-0.1l-0.002-0c-0.194-0.009-0.422-0.015-0.651-0.015-0.080 0-0.16 0.001-0.24 0.002l0.012-0c-0.58 0-0.653 0.002-0.879 0.013-0.228 0.009-0.384 0.047-0.518 0.098-0.143 0.055-0.271 0.139-0.378 0.247-0.109 0.107-0.192 0.235-0.247 0.378-0.059 0.154-0.095 0.331-0.098 0.517l-0 0.001c-0.009 0.194-0.015 0.422-0.015 0.651 0 0.080 0.001 0.16 0.002 0.24l-0-0.012c0 0.58 0 0.653 0.011 0.879 0.004 0.187 0.040 0.365 0.104 0.529l-0.004-0.011c0.053 0.143 0.139 0.271 0.247 0.378 0.107 0.109 0.235 0.192 0.378 0.247 0.134 0.051 0.29 0.087 0.516 0.098 0.228 0.011 0.299 0.013 0.879 0.013s0.653-0.002 0.881-0.013c0.186-0.003 0.363-0.039 0.527-0.102l-0.011 0.004c0.288-0.113 0.512-0.337 0.622-0.618l0.003-0.007c0.051-0.137 0.090-0.29 0.098-0.518 0.011-0.226 0.013-0.299 0.013-0.879 0-0.578 0-0.651-0.011-0.879zM3.878 2.997c-0.009 0.207-0.043 0.32-0.073 0.395-0.074 0.187-0.219 0.332-0.401 0.404l-0.005 0.002c-0.075 0.030-0.19 0.064-0.397 0.073-0.224 0.011-0.292 0.013-0.862 0.013-0.062 0.001-0.135 0.001-0.208 0.001-0.23 0-0.458-0.005-0.686-0.015l0.032 0.001c-0.209-0.009-0.32-0.043-0.395-0.073-0.096-0.036-0.178-0.091-0.245-0.16l-0-0c-0.069-0.067-0.123-0.148-0.158-0.239l-0.002-0.005c-0.045-0.118-0.071-0.254-0.073-0.396v-0.001c-0.009-0.195-0.014-0.424-0.014-0.654 0-0.073 0.001-0.146 0.002-0.219l-0 0.011c0-0.57 0.002-0.638 0.013-0.862 0.009-0.209 0.043-0.32 0.073-0.397 0.034-0.092 0.087-0.175 0.16-0.243 0.067-0.069 0.149-0.124 0.241-0.158l0.005-0.002c0.075-0.030 0.188-0.064 0.397-0.073 0.224-0.011 0.292-0.013 0.86-0.013 0.572 0 0.64 0 0.862 0.013 0.209 0.009 0.32 0.043 0.397 0.073 0.092 0.034 0.177 0.087 0.245 0.16 0.070 0.068 0.126 0.151 0.16 0.243 0.028 0.077 0.064 0.19 0.073 0.397 0.011 0.224 0.013 0.292 0.013 0.862s-0.002 0.636-0.013 0.862z"></path>
<path fill="#afb1b8" d="M2.142 1.037c-0.606 0-1.097 0.491-1.097 1.097s0.491 1.097 1.097 1.097v0c0.606 0 1.097-0.491 1.097-1.097s-0.491-1.097-1.097-1.097v0zM2.142 2.844c-0.392 0-0.71-0.318-0.71-0.71s0.318-0.71 0.71-0.71v0c0.392 0 0.71 0.318 0.71 0.71s-0.318 0.71-0.71 0.71v0zM3.537 0.994c0 0.141-0.115 0.256-0.256 0.256s-0.256-0.115-0.256-0.256v0c0-0.141 0.115-0.256 0.256-0.256s0.256 0.115 0.256 0.256v0z"></path>
</symbol>
<symbol id="icon-sm-linkedin" viewBox="0 0 64 32">
<path fill="#afb1b8" d="M2.142 1.037c-0.606 0-1.097 0.491-1.097 1.097s0.491 1.097 1.097 1.097v0c0.606 0 1.097-0.491 1.097-1.097s-0.491-1.097-1.097-1.097v0zM2.142 2.844c-0.392 0-0.71-0.318-0.71-0.71s0.318-0.71 0.71-0.71v0c0.392 0 0.71 0.318 0.71 0.71s-0.318 0.71-0.71 0.71v0zM3.537 0.994c0 0.141-0.115 0.256-0.256 0.256s-0.256-0.115-0.256-0.256v0c0-0.141 0.115-0.256 0.256-0.256s0.256 0.115 0.256 0.256v0z"></path>
</symbol>
<symbol id="icon-sm-twitter" viewBox="0 0 64 32">
<path fill="#afb1b8" d="M4.267 0.811c-0.149 0.064-0.32 0.107-0.512 0.128 0.18-0.105 0.315-0.268 0.382-0.463l0.002-0.006c-0.171 0.107-0.341 0.171-0.555 0.213-0.16-0.172-0.388-0.279-0.64-0.279-0.483 0-0.875 0.392-0.875 0.875 0 0.069 0.008 0.135 0.023 0.199l-0.001-0.006c-0.725-0.043-1.365-0.384-1.792-0.917-0.075 0.126-0.119 0.278-0.119 0.441 0 0.305 0.156 0.574 0.393 0.73l0.003 0.002c-0.149-0.001-0.288-0.041-0.41-0.109l0.004 0.002c0 0.427 0.299 0.789 0.704 0.853-0.074 0.023-0.158 0.036-0.246 0.036-0.056 0-0.111-0.005-0.164-0.016l0.005 0.001c0.128 0.363 0.427 0.619 0.832 0.619-0.295 0.235-0.673 0.376-1.084 0.376-0.077 0-0.152-0.005-0.226-0.014l0.009 0.001c0.384 0.256 0.853 0.363 1.344 0.363 0 0 0.001 0 0.001 0 1.367 0 2.475-1.108 2.475-2.475 0-0.030-0.001-0.060-0.002-0.090l0 0.004c0.192-0.128 0.32-0.277 0.448-0.448z"></path>
</symbol>
</defs>
</svg>
